<svg width="14" height="15" viewBox="0 0 14 15" fill="none" xmlns="http://www.w3.org/2000/svg">
<path d="M13.9999 1C13.9999 0.447715 13.5522 -3.3503e-07 12.9999 6.31612e-08L3.99994 -5.26895e-07C3.44765 -5.50172e-07 2.99994 0.447715 2.99994 1C2.99994 1.55228 3.44765 2 3.99994 2L11.9999 2V10C11.9999 10.5523 12.4477 11 12.9999 11C13.5522 11 13.9999 10.5523 13.9999 10L13.9999 1ZM8.06355 7.3506L13.707 1.70711L12.2928 0.292893L6.64934 5.93638L8.06355 7.3506Z" fill="white"/>
<path d="M6.49552e-05 13.1898C6.45337e-05 13.742 0.44778 14.1898 1.00006 14.1898L10.0001 14.1898C10.5523 14.1898 11.0001 13.742 11.0001 13.1898C11.0001 12.6375 10.5523 12.1898 10.0001 12.1898H2.00006V4.18975C2.00006 3.63747 1.55235 3.18975 1.00006 3.18975C0.44778 3.18975 6.47444e-05 3.63747 6.47444e-05 4.18975L6.49552e-05 13.1898ZM5.93645 6.83915L0.292958 12.4826L1.70717 13.8969L7.35066 8.25337L5.93645 6.83915Z" fill="white"/>
</svg>
