<svg width="17" height="17" viewBox="0 0 17 17" fill="none" xmlns="http://www.w3.org/2000/svg">
<path d="M9.13379 11.416H7.39062C7.38607 11.1654 7.38379 11.0127 7.38379 10.958C7.38379 10.3929 7.47721 9.92806 7.66406 9.56348C7.85091 9.19889 8.22461 8.78874 8.78516 8.33301C9.3457 7.87728 9.68066 7.57878 9.79004 7.4375C9.95866 7.21419 10.043 6.9681 10.043 6.69922C10.043 6.32552 9.89258 6.00651 9.5918 5.74219C9.29557 5.47331 8.89453 5.33887 8.38867 5.33887C7.90104 5.33887 7.49316 5.47786 7.16504 5.75586C6.83691 6.03385 6.61133 6.45768 6.48828 7.02734L4.72461 6.80859C4.77474 5.99284 5.12109 5.30013 5.76367 4.73047C6.41081 4.16081 7.25846 3.87598 8.30664 3.87598C9.40951 3.87598 10.2868 4.16536 10.9385 4.74414C11.5902 5.31836 11.916 5.98828 11.916 6.75391C11.916 7.17773 11.7952 7.57878 11.5537 7.95703C11.3167 8.33529 10.8063 8.85026 10.0225 9.50195C9.61686 9.83919 9.36393 10.1104 9.26367 10.3154C9.16797 10.5205 9.12467 10.8874 9.13379 11.416ZM7.39062 14V12.0791H9.31152V14H7.39062Z" fill="#B4D2FF"/>
<circle cx="8.5" cy="8.5" r="8" stroke="#B4D2FF"/>
</svg>
