<svg width="35" height="35" viewBox="0 0 35 35" fill="none" xmlns="http://www.w3.org/2000/svg">
<path d="M16.0734 6.00861C16.5224 4.62664 18.4776 4.62664 18.9266 6.00861L20.5044 10.8647C20.8391 11.8948 21.799 12.5922 22.8821 12.5922L27.9881 12.5922C29.4412 12.5922 30.0454 14.4516 28.8698 15.3057L24.7389 18.307C23.8627 18.9436 23.4961 20.072 23.8307 21.1021L25.4086 25.9582C25.8576 27.3402 24.2759 28.4894 23.1003 27.6353L18.9695 24.634C18.0932 23.9974 16.9068 23.9974 16.0305 24.634L11.8997 27.6353C10.7241 28.4894 9.14237 27.3402 9.5914 25.9582L11.1693 21.1021C11.5039 20.072 11.1373 18.9436 10.2611 18.307L6.1302 15.3057C4.95463 14.4516 5.55879 12.5922 7.01188 12.5922L12.1179 12.5922C13.201 12.5922 14.1609 11.8948 14.4956 10.8647L16.0734 6.00861Z" stroke="#FF8C00"/>
<path d="M15.5979 5.8541C16.1966 4.01148 18.8034 4.01148 19.4021 5.8541L20.98 10.7102C21.2477 11.5343 22.0156 12.0922 22.8821 12.0922L27.9881 12.0922C29.9256 12.0922 30.7311 14.5714 29.1637 15.7102L25.0328 18.7115C24.3318 19.2208 24.0385 20.1235 24.3063 20.9476L25.8841 25.8037C26.4828 27.6463 24.3739 29.1786 22.8064 28.0398L18.6756 25.0385C17.9746 24.5292 17.0254 24.5292 16.3244 25.0385L12.1936 28.0398C10.6261 29.1786 8.51717 27.6463 9.11587 25.8037L10.6937 20.9476C10.9615 20.1235 10.6682 19.2208 9.96718 18.7115L5.8363 15.7102C4.26888 14.5714 5.07443 12.0922 7.01188 12.0922L12.1179 12.0922C12.9844 12.0922 13.7523 11.5343 14.02 10.7102L15.5979 5.8541Z" fill="#FF8C00"/>
</svg>
