<svg width="35" height="35" viewBox="0 0 35 35" fill="none" xmlns="http://www.w3.org/2000/svg">
<path d="M16.0734 6.00861C16.5224 4.62664 18.4776 4.62664 18.9266 6.00861L20.5044 10.8647C20.8391 11.8948 21.799 12.5922 22.8821 12.5922L27.9881 12.5922C29.4412 12.5922 30.0454 14.4516 28.8698 15.3057L24.7389 18.307C23.8627 18.9436 23.4961 20.072 23.8307 21.1021L25.4086 25.9582C25.8576 27.3402 24.2759 28.4894 23.1003 27.6353L18.9695 24.634C18.0932 23.9974 16.9068 23.9974 16.0305 24.634L11.8997 27.6353C10.7241 28.4894 9.14237 27.3402 9.5914 25.9582L11.1693 21.1021C11.5039 20.072 11.1373 18.9436 10.2611 18.307L6.1302 15.3057C4.95463 14.4516 5.55879 12.5922 7.01188 12.5922L12.1179 12.5922C13.201 12.5922 14.1609 11.8948 14.4956 10.8647L16.0734 6.00861Z" stroke="#000917"/>
</svg>
